<mxfile host="app.diagrams.net" agent="Mozilla/5.0 (Windows NT 10.0; Win64; x64) AppleWebKit/537.36 (KHTML, like Gecko) Chrome/138.0.0.0 Safari/537.36 Edg/138.0.0.0" version="28.1.1" pages="2">
  <diagram name="Req" id="E3OzWX_DPEQc0k1eEvq9">
    <mxGraphModel dx="1091" dy="613" grid="1" gridSize="10" guides="1" tooltips="1" connect="1" arrows="1" fold="1" page="1" pageScale="1" pageWidth="827" pageHeight="1169" math="0" shadow="0">
      <root>
        <mxCell id="0" />
        <mxCell id="1" parent="0" />
        <mxCell id="mPgQsxYJiPaG7lfjC5M3-1" value="&lt;font&gt;&lt;b&gt;Req &lt;/b&gt;[Package] System Requirements [ &lt;b&gt;V2V Cooperative -V2V- Navigation&lt;/b&gt;&lt;span style=&quot;background-color: transparent; color: light-dark(rgb(0, 0, 0), rgb(255, 255, 255));&quot;&gt;]&lt;/span&gt;&lt;/font&gt;" style="shape=umlFrame;whiteSpace=wrap;html=1;pointerEvents=0;width=387;height=30;strokeWidth=1;fontSize=11;labelBackgroundColor=none;rounded=0;" vertex="1" parent="1">
          <mxGeometry x="33" y="230" width="747" height="770" as="geometry" />
        </mxCell>
        <mxCell id="mPgQsxYJiPaG7lfjC5M3-2" value="" style="fontStyle=1;align=center;verticalAlign=middle;childLayout=stackLayout;horizontal=1;horizontalStack=0;resizeParent=1;resizeParentMax=0;resizeLast=0;marginBottom=0;strokeWidth=1;fontSize=11;labelBackgroundColor=none;rounded=0;" vertex="1" parent="1">
          <mxGeometry x="300" y="270" width="210" height="134" as="geometry" />
        </mxCell>
        <mxCell id="mPgQsxYJiPaG7lfjC5M3-3" value="&amp;lt;&amp;lt;requirement&amp;gt;&amp;gt;" style="html=1;align=center;spacing=0;verticalAlign=middle;strokeColor=none;fillColor=none;whiteSpace=wrap;spacingTop=3;strokeWidth=1;fontSize=11;labelBackgroundColor=none;rounded=0;" vertex="1" parent="mPgQsxYJiPaG7lfjC5M3-2">
          <mxGeometry width="210" height="16" as="geometry" />
        </mxCell>
        <mxCell id="mPgQsxYJiPaG7lfjC5M3-4" value="System Requirement&amp;nbsp;" style="html=1;align=center;spacing=0;verticalAlign=middle;strokeColor=none;fillColor=none;whiteSpace=wrap;fontStyle=1;strokeWidth=1;fontSize=11;labelBackgroundColor=none;rounded=0;" vertex="1" parent="mPgQsxYJiPaG7lfjC5M3-2">
          <mxGeometry y="16" width="210" height="18" as="geometry" />
        </mxCell>
        <mxCell id="mPgQsxYJiPaG7lfjC5M3-5" value="" style="line;strokeWidth=1;fillColor=none;align=left;verticalAlign=middle;spacingTop=-1;spacingLeft=3;spacingRight=3;rotatable=0;labelPosition=right;points=[];portConstraint=eastwest;fontSize=11;labelBackgroundColor=none;rounded=0;" vertex="1" parent="mPgQsxYJiPaG7lfjC5M3-2">
          <mxGeometry y="34" width="210" height="8" as="geometry" />
        </mxCell>
        <mxCell id="mPgQsxYJiPaG7lfjC5M3-6" value="text=&quot;The system shall detect and respond to hazards in real time in a safe V2V communication&quot;" style="html=1;align=left;spacing=0;verticalAlign=middle;strokeColor=none;fillColor=none;whiteSpace=wrap;spacingLeft=10;strokeWidth=1;fontSize=11;labelBackgroundColor=none;rounded=0;" vertex="1" parent="mPgQsxYJiPaG7lfjC5M3-2">
          <mxGeometry y="42" width="210" height="38" as="geometry" />
        </mxCell>
        <mxCell id="mPgQsxYJiPaG7lfjC5M3-7" value="Id=&quot;01&quot;" style="html=1;align=left;spacing=0;verticalAlign=middle;strokeColor=none;fillColor=none;whiteSpace=wrap;spacingLeft=10;strokeWidth=1;fontSize=11;labelBackgroundColor=none;rounded=0;" vertex="1" parent="mPgQsxYJiPaG7lfjC5M3-2">
          <mxGeometry y="80" width="210" height="52" as="geometry" />
        </mxCell>
        <mxCell id="mPgQsxYJiPaG7lfjC5M3-8" value="" style="html=1;align=center;spacing=0;verticalAlign=middle;strokeColor=none;fillColor=none;whiteSpace=wrap;strokeWidth=1;fontSize=11;labelBackgroundColor=none;rounded=0;" vertex="1" parent="mPgQsxYJiPaG7lfjC5M3-2">
          <mxGeometry y="132" width="210" height="2" as="geometry" />
        </mxCell>
        <mxCell id="mPgQsxYJiPaG7lfjC5M3-10" value="&lt;b&gt;&lt;font style=&quot;font-size: 14px;&quot;&gt;Functional Requirements&lt;/font&gt;&lt;/b&gt;" style="shape=rect;html=1;whiteSpace=wrap;align=center;strokeWidth=1;fontSize=11;labelBackgroundColor=none;rounded=0;" vertex="1" parent="1">
          <mxGeometry x="151.5" y="440" width="170" height="60" as="geometry" />
        </mxCell>
        <mxCell id="mPgQsxYJiPaG7lfjC5M3-11" value="&lt;b&gt;&lt;font style=&quot;font-size: 14px;&quot;&gt;Non Functional Requirements&lt;/font&gt;&lt;/b&gt;" style="shape=rect;html=1;whiteSpace=wrap;align=center;strokeWidth=1;fontSize=11;labelBackgroundColor=none;rounded=0;" vertex="1" parent="1">
          <mxGeometry x="500" y="440" width="170" height="60" as="geometry" />
        </mxCell>
        <mxCell id="mPgQsxYJiPaG7lfjC5M3-12" value="" style="rounded=0;html=1;labelBackgroundColor=none;endArrow=none;edgeStyle=elbowEdgeStyle;elbow=vertical;startArrow=sysMLPackCont;startSize=12;entryX=0.5;entryY=0;entryDx=0;entryDy=0;strokeWidth=1;fontSize=11;exitX=0.521;exitY=0.93;exitDx=0;exitDy=0;exitPerimeter=0;fontColor=default;" edge="1" source="mPgQsxYJiPaG7lfjC5M3-8" target="mPgQsxYJiPaG7lfjC5M3-10" parent="1">
          <mxGeometry relative="1" as="geometry">
            <mxPoint x="410" y="410" as="sourcePoint" />
            <mxPoint x="210" y="524" as="targetPoint" />
            <Array as="points">
              <mxPoint x="320" y="420" />
            </Array>
          </mxGeometry>
        </mxCell>
        <mxCell id="mPgQsxYJiPaG7lfjC5M3-13" value="" style="rounded=0;html=1;labelBackgroundColor=none;endArrow=none;edgeStyle=elbowEdgeStyle;elbow=vertical;startArrow=sysMLPackCont;startSize=12;exitX=0.52;exitY=0.643;exitDx=0;exitDy=0;exitPerimeter=0;entryX=0.5;entryY=0;entryDx=0;entryDy=0;strokeWidth=1;fontSize=11;fontColor=default;" edge="1" source="mPgQsxYJiPaG7lfjC5M3-8" target="mPgQsxYJiPaG7lfjC5M3-11" parent="1">
          <mxGeometry relative="1" as="geometry">
            <mxPoint x="409.99999999999994" y="413.476" as="sourcePoint" />
            <mxPoint x="618.2" y="530" as="targetPoint" />
            <Array as="points">
              <mxPoint x="490" y="420" />
            </Array>
          </mxGeometry>
        </mxCell>
        <mxCell id="mPgQsxYJiPaG7lfjC5M3-14" value="" style="fontStyle=1;align=center;verticalAlign=middle;childLayout=stackLayout;horizontal=1;horizontalStack=0;resizeParent=1;resizeParentMax=0;resizeLast=0;marginBottom=0;strokeWidth=1;fontSize=11;labelBackgroundColor=none;rounded=0;" vertex="1" parent="1">
          <mxGeometry x="60" y="600" width="170" height="106" as="geometry" />
        </mxCell>
        <mxCell id="mPgQsxYJiPaG7lfjC5M3-15" value="&amp;lt;&amp;lt;requirement&amp;gt;&amp;gt;" style="html=1;align=center;spacing=0;verticalAlign=middle;strokeColor=none;fillColor=none;whiteSpace=wrap;spacingTop=3;strokeWidth=1;fontSize=11;labelBackgroundColor=none;rounded=0;" vertex="1" parent="mPgQsxYJiPaG7lfjC5M3-14">
          <mxGeometry width="170" height="16" as="geometry" />
        </mxCell>
        <mxCell id="mPgQsxYJiPaG7lfjC5M3-16" value="&amp;nbsp;Lane Following" style="html=1;align=center;spacing=0;verticalAlign=middle;strokeColor=none;fillColor=none;whiteSpace=wrap;fontStyle=1;strokeWidth=1;fontSize=11;labelBackgroundColor=none;rounded=0;" vertex="1" parent="mPgQsxYJiPaG7lfjC5M3-14">
          <mxGeometry y="16" width="170" height="18" as="geometry" />
        </mxCell>
        <mxCell id="mPgQsxYJiPaG7lfjC5M3-17" value="" style="line;strokeWidth=1;fillColor=none;align=left;verticalAlign=middle;spacingTop=-1;spacingLeft=3;spacingRight=3;rotatable=0;labelPosition=right;points=[];portConstraint=eastwest;fontSize=11;labelBackgroundColor=none;rounded=0;" vertex="1" parent="mPgQsxYJiPaG7lfjC5M3-14">
          <mxGeometry y="34" width="170" height="8" as="geometry" />
        </mxCell>
        <mxCell id="mPgQsxYJiPaG7lfjC5M3-18" value="&amp;nbsp;text=&quot;The vehicle shall maintain safe lane following&quot;" style="html=1;align=left;spacing=0;verticalAlign=middle;strokeColor=none;fillColor=none;whiteSpace=wrap;spacingLeft=10;strokeWidth=1;fontSize=11;labelBackgroundColor=none;rounded=0;" vertex="1" parent="mPgQsxYJiPaG7lfjC5M3-14">
          <mxGeometry y="42" width="170" height="28" as="geometry" />
        </mxCell>
        <mxCell id="mPgQsxYJiPaG7lfjC5M3-20" value="" style="html=1;align=center;spacing=0;verticalAlign=middle;strokeColor=none;fillColor=none;whiteSpace=wrap;strokeWidth=1;fontSize=11;labelBackgroundColor=none;rounded=0;" vertex="1" parent="mPgQsxYJiPaG7lfjC5M3-14">
          <mxGeometry y="70" width="170" height="10" as="geometry" />
        </mxCell>
        <mxCell id="mPgQsxYJiPaG7lfjC5M3-19" value="Id=&quot;02&quot;" style="html=1;align=left;spacing=0;verticalAlign=middle;strokeColor=none;fillColor=none;whiteSpace=wrap;spacingLeft=10;strokeWidth=1;fontSize=11;labelBackgroundColor=none;rounded=0;" vertex="1" parent="mPgQsxYJiPaG7lfjC5M3-14">
          <mxGeometry y="80" width="170" height="26" as="geometry" />
        </mxCell>
        <mxCell id="mPgQsxYJiPaG7lfjC5M3-21" value="" style="fontStyle=1;align=center;verticalAlign=middle;childLayout=stackLayout;horizontal=1;horizontalStack=0;resizeParent=1;resizeParentMax=0;resizeLast=0;marginBottom=0;strokeWidth=1;fontSize=11;labelBackgroundColor=none;rounded=0;" vertex="1" parent="1">
          <mxGeometry x="321.5" y="600" width="190" height="106" as="geometry" />
        </mxCell>
        <mxCell id="mPgQsxYJiPaG7lfjC5M3-22" value="&amp;lt;&amp;lt;requirement&amp;gt;&amp;gt;" style="html=1;align=center;spacing=0;verticalAlign=middle;strokeColor=none;fillColor=none;whiteSpace=wrap;spacingTop=3;strokeWidth=1;fontSize=11;labelBackgroundColor=none;rounded=0;" vertex="1" parent="mPgQsxYJiPaG7lfjC5M3-21">
          <mxGeometry width="190" height="16" as="geometry" />
        </mxCell>
        <mxCell id="mPgQsxYJiPaG7lfjC5M3-23" value="MQTT" style="html=1;align=center;spacing=0;verticalAlign=middle;strokeColor=none;fillColor=none;whiteSpace=wrap;fontStyle=1;strokeWidth=1;fontSize=11;labelBackgroundColor=none;rounded=0;" vertex="1" parent="mPgQsxYJiPaG7lfjC5M3-21">
          <mxGeometry y="16" width="190" height="18" as="geometry" />
        </mxCell>
        <mxCell id="mPgQsxYJiPaG7lfjC5M3-24" value="" style="line;strokeWidth=1;fillColor=none;align=left;verticalAlign=middle;spacingTop=-1;spacingLeft=3;spacingRight=3;rotatable=0;labelPosition=right;points=[];portConstraint=eastwest;fontSize=11;labelBackgroundColor=none;rounded=0;" vertex="1" parent="mPgQsxYJiPaG7lfjC5M3-21">
          <mxGeometry y="34" width="190" height="8" as="geometry" />
        </mxCell>
        <mxCell id="mPgQsxYJiPaG7lfjC5M3-25" value="text=&quot;The vehicle shall communicate hazards via V2V over MQTT&quot;" style="html=1;align=left;spacing=0;verticalAlign=middle;strokeColor=none;fillColor=none;whiteSpace=wrap;spacingLeft=10;strokeWidth=1;fontSize=11;labelBackgroundColor=none;rounded=0;" vertex="1" parent="mPgQsxYJiPaG7lfjC5M3-21">
          <mxGeometry y="42" width="190" height="28" as="geometry" />
        </mxCell>
        <mxCell id="mPgQsxYJiPaG7lfjC5M3-26" value="" style="html=1;align=center;spacing=0;verticalAlign=middle;strokeColor=none;fillColor=none;whiteSpace=wrap;strokeWidth=1;fontSize=11;labelBackgroundColor=none;rounded=0;" vertex="1" parent="mPgQsxYJiPaG7lfjC5M3-21">
          <mxGeometry y="70" width="190" height="10" as="geometry" />
        </mxCell>
        <mxCell id="mPgQsxYJiPaG7lfjC5M3-27" value="Id=&quot;03&quot;" style="html=1;align=left;spacing=0;verticalAlign=middle;strokeColor=none;fillColor=none;whiteSpace=wrap;spacingLeft=10;strokeWidth=1;fontSize=11;labelBackgroundColor=none;rounded=0;" vertex="1" parent="mPgQsxYJiPaG7lfjC5M3-21">
          <mxGeometry y="80" width="190" height="26" as="geometry" />
        </mxCell>
        <mxCell id="mPgQsxYJiPaG7lfjC5M3-28" value="" style="fontStyle=1;align=center;verticalAlign=middle;childLayout=stackLayout;horizontal=1;horizontalStack=0;resizeParent=1;resizeParentMax=0;resizeLast=0;marginBottom=0;strokeWidth=1;fontSize=11;labelBackgroundColor=none;rounded=0;" vertex="1" parent="1">
          <mxGeometry x="75" y="830" width="175" height="106" as="geometry" />
        </mxCell>
        <mxCell id="mPgQsxYJiPaG7lfjC5M3-29" value="&amp;lt;&amp;lt;requirement&amp;gt;&amp;gt;" style="html=1;align=center;spacing=0;verticalAlign=middle;strokeColor=none;fillColor=none;whiteSpace=wrap;spacingTop=3;strokeWidth=1;fontSize=11;labelBackgroundColor=none;rounded=0;" vertex="1" parent="mPgQsxYJiPaG7lfjC5M3-28">
          <mxGeometry width="175" height="16" as="geometry" />
        </mxCell>
        <mxCell id="mPgQsxYJiPaG7lfjC5M3-30" value="&amp;nbsp;LiDAR Sensor" style="html=1;align=center;spacing=0;verticalAlign=middle;strokeColor=none;fillColor=none;whiteSpace=wrap;fontStyle=1;strokeWidth=1;fontSize=11;labelBackgroundColor=none;rounded=0;" vertex="1" parent="mPgQsxYJiPaG7lfjC5M3-28">
          <mxGeometry y="16" width="175" height="18" as="geometry" />
        </mxCell>
        <mxCell id="mPgQsxYJiPaG7lfjC5M3-31" value="" style="line;strokeWidth=1;fillColor=none;align=left;verticalAlign=middle;spacingTop=-1;spacingLeft=3;spacingRight=3;rotatable=0;labelPosition=right;points=[];portConstraint=eastwest;fontSize=11;labelBackgroundColor=none;rounded=0;" vertex="1" parent="mPgQsxYJiPaG7lfjC5M3-28">
          <mxGeometry y="34" width="175" height="8" as="geometry" />
        </mxCell>
        <mxCell id="mPgQsxYJiPaG7lfjC5M3-32" value="&amp;nbsp;text=&quot;Obstacle detection shall use LiDAR within Safe distance &quot;" style="html=1;align=left;spacing=0;verticalAlign=middle;strokeColor=none;fillColor=none;whiteSpace=wrap;spacingLeft=10;strokeWidth=1;fontSize=11;labelBackgroundColor=none;rounded=0;" vertex="1" parent="mPgQsxYJiPaG7lfjC5M3-28">
          <mxGeometry y="42" width="175" height="28" as="geometry" />
        </mxCell>
        <mxCell id="mPgQsxYJiPaG7lfjC5M3-33" value="" style="html=1;align=center;spacing=0;verticalAlign=middle;strokeColor=none;fillColor=none;whiteSpace=wrap;strokeWidth=1;fontSize=11;labelBackgroundColor=none;rounded=0;" vertex="1" parent="mPgQsxYJiPaG7lfjC5M3-28">
          <mxGeometry y="70" width="175" height="10" as="geometry" />
        </mxCell>
        <mxCell id="mPgQsxYJiPaG7lfjC5M3-34" value="Id=&quot;05&quot;" style="html=1;align=left;spacing=0;verticalAlign=middle;strokeColor=none;fillColor=none;whiteSpace=wrap;spacingLeft=10;strokeWidth=1;fontSize=11;labelBackgroundColor=none;rounded=0;" vertex="1" parent="mPgQsxYJiPaG7lfjC5M3-28">
          <mxGeometry y="80" width="175" height="26" as="geometry" />
        </mxCell>
        <mxCell id="mPgQsxYJiPaG7lfjC5M3-35" value="" style="fontStyle=1;align=center;verticalAlign=middle;childLayout=stackLayout;horizontal=1;horizontalStack=0;resizeParent=1;resizeParentMax=0;resizeLast=0;marginBottom=0;strokeWidth=1;fontSize=11;labelBackgroundColor=none;rounded=0;" vertex="1" parent="1">
          <mxGeometry x="290" y="830" width="190" height="106" as="geometry" />
        </mxCell>
        <mxCell id="mPgQsxYJiPaG7lfjC5M3-36" value="&amp;lt;&amp;lt;requirement&amp;gt;&amp;gt;" style="html=1;align=center;spacing=0;verticalAlign=middle;strokeColor=none;fillColor=none;whiteSpace=wrap;spacingTop=3;strokeWidth=1;fontSize=11;labelBackgroundColor=none;rounded=0;" vertex="1" parent="mPgQsxYJiPaG7lfjC5M3-35">
          <mxGeometry width="190" height="16" as="geometry" />
        </mxCell>
        <mxCell id="mPgQsxYJiPaG7lfjC5M3-37" value="Classification" style="html=1;align=center;spacing=0;verticalAlign=middle;strokeColor=none;fillColor=none;whiteSpace=wrap;fontStyle=1;strokeWidth=1;fontSize=11;labelBackgroundColor=none;rounded=0;" vertex="1" parent="mPgQsxYJiPaG7lfjC5M3-35">
          <mxGeometry y="16" width="190" height="18" as="geometry" />
        </mxCell>
        <mxCell id="mPgQsxYJiPaG7lfjC5M3-38" value="" style="line;strokeWidth=1;fillColor=none;align=left;verticalAlign=middle;spacingTop=-1;spacingLeft=3;spacingRight=3;rotatable=0;labelPosition=right;points=[];portConstraint=eastwest;fontSize=11;labelBackgroundColor=none;rounded=0;" vertex="1" parent="mPgQsxYJiPaG7lfjC5M3-35">
          <mxGeometry y="34" width="190" height="8" as="geometry" />
        </mxCell>
        <mxCell id="mPgQsxYJiPaG7lfjC5M3-39" value="text=&quot;Hazard detection shall use image classification&quot;" style="html=1;align=left;spacing=0;verticalAlign=middle;strokeColor=none;fillColor=none;whiteSpace=wrap;spacingLeft=10;strokeWidth=1;fontSize=11;labelBackgroundColor=none;rounded=0;" vertex="1" parent="mPgQsxYJiPaG7lfjC5M3-35">
          <mxGeometry y="42" width="190" height="28" as="geometry" />
        </mxCell>
        <mxCell id="mPgQsxYJiPaG7lfjC5M3-40" value="" style="html=1;align=center;spacing=0;verticalAlign=middle;strokeColor=none;fillColor=none;whiteSpace=wrap;strokeWidth=1;fontSize=11;labelBackgroundColor=none;rounded=0;" vertex="1" parent="mPgQsxYJiPaG7lfjC5M3-35">
          <mxGeometry y="70" width="190" height="10" as="geometry" />
        </mxCell>
        <mxCell id="mPgQsxYJiPaG7lfjC5M3-41" value="Id=&quot;06&quot;" style="html=1;align=left;spacing=0;verticalAlign=middle;strokeColor=none;fillColor=none;whiteSpace=wrap;spacingLeft=10;strokeWidth=1;fontSize=11;labelBackgroundColor=none;rounded=0;" vertex="1" parent="mPgQsxYJiPaG7lfjC5M3-35">
          <mxGeometry y="80" width="190" height="26" as="geometry" />
        </mxCell>
        <mxCell id="mPgQsxYJiPaG7lfjC5M3-42" value="" style="fontStyle=1;align=center;verticalAlign=middle;childLayout=stackLayout;horizontal=1;horizontalStack=0;resizeParent=1;resizeParentMax=0;resizeLast=0;marginBottom=0;strokeWidth=1;fontSize=11;labelBackgroundColor=none;rounded=0;" vertex="1" parent="1">
          <mxGeometry x="550" y="590" width="190" height="106" as="geometry" />
        </mxCell>
        <mxCell id="mPgQsxYJiPaG7lfjC5M3-43" value="&amp;lt;&amp;lt;requirement&amp;gt;&amp;gt;" style="html=1;align=center;spacing=0;verticalAlign=middle;strokeColor=none;fillColor=none;whiteSpace=wrap;spacingTop=3;strokeWidth=1;fontSize=11;labelBackgroundColor=none;rounded=0;" vertex="1" parent="mPgQsxYJiPaG7lfjC5M3-42">
          <mxGeometry width="190" height="16" as="geometry" />
        </mxCell>
        <mxCell id="mPgQsxYJiPaG7lfjC5M3-44" value="Hazard Alert" style="html=1;align=center;spacing=0;verticalAlign=middle;strokeColor=none;fillColor=none;whiteSpace=wrap;fontStyle=1;strokeWidth=1;fontSize=11;labelBackgroundColor=none;rounded=0;" vertex="1" parent="mPgQsxYJiPaG7lfjC5M3-42">
          <mxGeometry y="16" width="190" height="18" as="geometry" />
        </mxCell>
        <mxCell id="mPgQsxYJiPaG7lfjC5M3-45" value="" style="line;strokeWidth=1;fillColor=none;align=left;verticalAlign=middle;spacingTop=-1;spacingLeft=3;spacingRight=3;rotatable=0;labelPosition=right;points=[];portConstraint=eastwest;fontSize=11;labelBackgroundColor=none;rounded=0;" vertex="1" parent="mPgQsxYJiPaG7lfjC5M3-42">
          <mxGeometry y="34" width="190" height="8" as="geometry" />
        </mxCell>
        <mxCell id="mPgQsxYJiPaG7lfjC5M3-46" value="text=&quot;The vehicle shall detect and respond to hazards in real time&quot;" style="html=1;align=left;spacing=0;verticalAlign=middle;strokeColor=none;fillColor=none;whiteSpace=wrap;spacingLeft=10;strokeWidth=1;fontSize=11;labelBackgroundColor=none;rounded=0;" vertex="1" parent="mPgQsxYJiPaG7lfjC5M3-42">
          <mxGeometry y="42" width="190" height="28" as="geometry" />
        </mxCell>
        <mxCell id="mPgQsxYJiPaG7lfjC5M3-47" value="" style="html=1;align=center;spacing=0;verticalAlign=middle;strokeColor=none;fillColor=none;whiteSpace=wrap;strokeWidth=1;fontSize=11;labelBackgroundColor=none;rounded=0;" vertex="1" parent="mPgQsxYJiPaG7lfjC5M3-42">
          <mxGeometry y="70" width="190" height="10" as="geometry" />
        </mxCell>
        <mxCell id="mPgQsxYJiPaG7lfjC5M3-48" value="Id=&quot;04&quot;" style="html=1;align=left;spacing=0;verticalAlign=middle;strokeColor=none;fillColor=none;whiteSpace=wrap;spacingLeft=10;strokeWidth=1;fontSize=11;labelBackgroundColor=none;rounded=0;" vertex="1" parent="mPgQsxYJiPaG7lfjC5M3-42">
          <mxGeometry y="80" width="190" height="26" as="geometry" />
        </mxCell>
        <mxCell id="mPgQsxYJiPaG7lfjC5M3-49" value="" style="fontStyle=1;align=center;verticalAlign=middle;childLayout=stackLayout;horizontal=1;horizontalStack=0;resizeParent=1;resizeParentMax=0;resizeLast=0;marginBottom=0;strokeWidth=1;fontSize=11;labelBackgroundColor=none;rounded=0;" vertex="1" parent="1">
          <mxGeometry x="570" y="820" width="190" height="106" as="geometry" />
        </mxCell>
        <mxCell id="mPgQsxYJiPaG7lfjC5M3-50" value="&amp;lt;&amp;lt;requirement&amp;gt;&amp;gt;" style="html=1;align=center;spacing=0;verticalAlign=middle;strokeColor=none;fillColor=none;whiteSpace=wrap;spacingTop=3;strokeWidth=1;fontSize=11;labelBackgroundColor=none;rounded=0;" vertex="1" parent="mPgQsxYJiPaG7lfjC5M3-49">
          <mxGeometry width="190" height="16" as="geometry" />
        </mxCell>
        <mxCell id="mPgQsxYJiPaG7lfjC5M3-51" value="Software_Modularity" style="html=1;align=center;spacing=0;verticalAlign=middle;strokeColor=none;fillColor=none;whiteSpace=wrap;fontStyle=1;strokeWidth=1;fontSize=11;labelBackgroundColor=none;rounded=0;" vertex="1" parent="mPgQsxYJiPaG7lfjC5M3-49">
          <mxGeometry y="16" width="190" height="18" as="geometry" />
        </mxCell>
        <mxCell id="mPgQsxYJiPaG7lfjC5M3-52" value="" style="line;strokeWidth=1;fillColor=none;align=left;verticalAlign=middle;spacingTop=-1;spacingLeft=3;spacingRight=3;rotatable=0;labelPosition=right;points=[];portConstraint=eastwest;fontSize=11;labelBackgroundColor=none;rounded=0;" vertex="1" parent="mPgQsxYJiPaG7lfjC5M3-49">
          <mxGeometry y="34" width="190" height="8" as="geometry" />
        </mxCell>
        <mxCell id="mPgQsxYJiPaG7lfjC5M3-53" value="text=&quot;Software shall be modular and support future sensors fusion&quot;" style="html=1;align=left;spacing=0;verticalAlign=middle;strokeColor=none;fillColor=none;whiteSpace=wrap;spacingLeft=10;strokeWidth=1;fontSize=11;labelBackgroundColor=none;rounded=0;" vertex="1" parent="mPgQsxYJiPaG7lfjC5M3-49">
          <mxGeometry y="42" width="190" height="28" as="geometry" />
        </mxCell>
        <mxCell id="mPgQsxYJiPaG7lfjC5M3-54" value="" style="html=1;align=center;spacing=0;verticalAlign=middle;strokeColor=none;fillColor=none;whiteSpace=wrap;strokeWidth=1;fontSize=11;labelBackgroundColor=none;rounded=0;" vertex="1" parent="mPgQsxYJiPaG7lfjC5M3-49">
          <mxGeometry y="70" width="190" height="10" as="geometry" />
        </mxCell>
        <mxCell id="mPgQsxYJiPaG7lfjC5M3-55" value="Id=&quot;07&quot;" style="html=1;align=left;spacing=0;verticalAlign=middle;strokeColor=none;fillColor=none;whiteSpace=wrap;spacingLeft=10;strokeWidth=1;fontSize=11;labelBackgroundColor=none;rounded=0;" vertex="1" parent="mPgQsxYJiPaG7lfjC5M3-49">
          <mxGeometry y="80" width="190" height="26" as="geometry" />
        </mxCell>
        <mxCell id="mPgQsxYJiPaG7lfjC5M3-60" value="&amp;lt;&amp;lt;deriveReq&amp;gt;&amp;gt;" style="endArrow=open;html=1;edgeStyle=none;endSize=12;dashed=1;rounded=0;entryX=0.452;entryY=1.029;entryDx=0;entryDy=0;entryPerimeter=0;exitX=0.456;exitY=-0.103;exitDx=0;exitDy=0;exitPerimeter=0;fontSize=11;labelBackgroundColor=none;fontColor=default;" edge="1" source="mPgQsxYJiPaG7lfjC5M3-15" target="mPgQsxYJiPaG7lfjC5M3-10" parent="1">
          <mxGeometry relative="1" as="geometry">
            <mxPoint x="390" y="650" as="sourcePoint" />
            <mxPoint x="510" y="650" as="targetPoint" />
          </mxGeometry>
        </mxCell>
        <mxCell id="mPgQsxYJiPaG7lfjC5M3-61" value="&amp;lt;&amp;lt;deriveReq&amp;gt;&amp;gt;" style="endArrow=open;html=1;edgeStyle=none;endSize=12;dashed=1;rounded=0;entryX=0.5;entryY=1;entryDx=0;entryDy=0;exitX=0.5;exitY=0;exitDx=0;exitDy=0;fontSize=11;labelBackgroundColor=none;fontColor=default;" edge="1" parent="1" source="mPgQsxYJiPaG7lfjC5M3-22" target="mPgQsxYJiPaG7lfjC5M3-10">
          <mxGeometry relative="1" as="geometry">
            <mxPoint x="260" y="606" as="sourcePoint" />
            <mxPoint x="330" y="560" as="targetPoint" />
          </mxGeometry>
        </mxCell>
        <mxCell id="mPgQsxYJiPaG7lfjC5M3-62" value="&amp;lt;&amp;lt;deriveReq&amp;gt;&amp;gt;" style="endArrow=open;html=1;edgeStyle=none;endSize=12;dashed=1;rounded=0;exitX=0.705;exitY=0.016;exitDx=0;exitDy=0;exitPerimeter=0;fontSize=11;labelBackgroundColor=none;fontColor=default;" edge="1" parent="1" source="mPgQsxYJiPaG7lfjC5M3-29">
          <mxGeometry x="-0.7345" y="8" relative="1" as="geometry">
            <mxPoint x="290" y="636" as="sourcePoint" />
            <mxPoint x="230" y="500" as="targetPoint" />
            <Array as="points">
              <mxPoint x="270" y="720" />
              <mxPoint x="270" y="600" />
            </Array>
            <mxPoint as="offset" />
          </mxGeometry>
        </mxCell>
        <mxCell id="mPgQsxYJiPaG7lfjC5M3-63" value="&amp;lt;&amp;lt;deriveReq&amp;gt;&amp;gt;" style="endArrow=open;html=1;edgeStyle=none;endSize=12;dashed=1;rounded=0;exitX=0.5;exitY=0;exitDx=0;exitDy=0;fontSize=11;labelBackgroundColor=none;fontColor=default;" edge="1" parent="1" source="mPgQsxYJiPaG7lfjC5M3-36">
          <mxGeometry x="-0.6508" y="5" relative="1" as="geometry">
            <mxPoint x="314" y="900" as="sourcePoint" />
            <mxPoint x="230" y="500" as="targetPoint" />
            <Array as="points">
              <mxPoint x="310" y="710" />
              <mxPoint x="300" y="600" />
            </Array>
            <mxPoint as="offset" />
          </mxGeometry>
        </mxCell>
        <mxCell id="mPgQsxYJiPaG7lfjC5M3-64" value="&amp;lt;&amp;lt;deriveReq&amp;gt;&amp;gt;" style="endArrow=open;html=1;edgeStyle=none;endSize=12;dashed=1;rounded=0;entryX=0.5;entryY=1;entryDx=0;entryDy=0;exitX=0.466;exitY=-0.09;exitDx=0;exitDy=0;exitPerimeter=0;fontSize=11;labelBackgroundColor=none;fontColor=default;" edge="1" parent="1" source="mPgQsxYJiPaG7lfjC5M3-43" target="mPgQsxYJiPaG7lfjC5M3-11">
          <mxGeometry relative="1" as="geometry">
            <mxPoint x="760" y="620" as="sourcePoint" />
            <mxPoint x="600" y="570" as="targetPoint" />
          </mxGeometry>
        </mxCell>
        <mxCell id="mPgQsxYJiPaG7lfjC5M3-67" value="&amp;lt;&amp;lt;satisfy&amp;gt;&amp;gt;" style="endArrow=open;edgeStyle=none;endSize=12;dashed=1;html=1;rounded=0;entryX=0.56;entryY=1.107;entryDx=0;entryDy=0;entryPerimeter=0;exitX=0.433;exitY=-0.243;exitDx=0;exitDy=0;exitPerimeter=0;fontSize=11;labelBackgroundColor=none;fontColor=default;" edge="1" source="mPgQsxYJiPaG7lfjC5M3-50" target="mPgQsxYJiPaG7lfjC5M3-48" parent="1">
          <mxGeometry relative="1" as="geometry">
            <mxPoint x="320" y="680" as="sourcePoint" />
            <mxPoint x="440" y="680" as="targetPoint" />
          </mxGeometry>
        </mxCell>
      </root>
    </mxGraphModel>
  </diagram>
  <diagram id="hRQFRprEUv6dqPvuTzxW" name="Use Case">
    <mxGraphModel dx="1480" dy="831" grid="1" gridSize="10" guides="1" tooltips="1" connect="1" arrows="1" fold="1" page="1" pageScale="1" pageWidth="827" pageHeight="1169" math="0" shadow="0">
      <root>
        <mxCell id="0" />
        <mxCell id="1" parent="0" />
        <mxCell id="824stADCSpXUjcyaGAVR-18" value="&lt;p style=&quot;margin:0px;margin-top:4px;margin-left:7px;text-align:left;&quot;&gt;&lt;b style=&quot;font-size: 11px; text-align: center; text-wrap-mode: wrap;&quot;&gt;Use Case&amp;nbsp;&lt;/b&gt;&lt;span style=&quot;font-size: 11px; text-align: center; text-wrap-mode: wrap;&quot;&gt;[Package] UseCase [&amp;nbsp;&lt;/span&gt;&lt;b style=&quot;font-size: 11px; text-align: center; text-wrap-mode: wrap;&quot;&gt;V2V Cooperative -V2V- Navigation&lt;/b&gt;&lt;span style=&quot;color: light-dark(rgb(0, 0, 0), rgb(255, 255, 255)); font-size: 11px; text-align: center; text-wrap-mode: wrap; background-color: transparent;&quot;&gt;]&lt;/span&gt;&lt;/p&gt;" style="html=1;shape=mxgraph.sysml.package;overflow=fill;labelX=362.88;strokeWidth=2;align=center;" vertex="1" parent="1">
          <mxGeometry x="20" y="60" width="800" height="580" as="geometry" />
        </mxCell>
        <mxCell id="RHz8wFNgn6Vi0xzlcAJh-9" value="&lt;p style=&quot;margin:0px;margin-top:4px;text-align:center;&quot;&gt;&lt;font style=&quot;color: rgb(0, 0, 0); font-size: 14px;&quot;&gt;&lt;b&gt;&lt;font&gt;&lt;font style=&quot;&quot;&gt;&amp;lt;&amp;lt;&lt;/font&gt;&lt;font&gt;Cooperative-V2V-navigation&lt;/font&gt;&lt;/font&gt;&lt;span style=&quot;background-color: transparent;&quot;&gt;&lt;font&gt;&amp;gt;&amp;gt;&lt;/font&gt;&lt;/span&gt;&lt;/b&gt;&lt;/font&gt;&lt;/p&gt;&lt;hr&gt;&lt;p&gt;&lt;/p&gt;" style="shape=rect;html=1;overflow=fill;whiteSpace=wrap;align=center;verticalAlign=top;rounded=0;fillColor=#f5f5f5;strokeColor=#666666;fontColor=#333333;" vertex="1" parent="1">
          <mxGeometry x="153" y="100" width="520" height="510" as="geometry" />
        </mxCell>
        <mxCell id="824stADCSpXUjcyaGAVR-2" style="edgeStyle=orthogonalEdgeStyle;rounded=0;orthogonalLoop=1;jettySize=auto;html=1;entryX=0.002;entryY=0.471;entryDx=0;entryDy=0;entryPerimeter=0;" edge="1" parent="1" source="RHz8wFNgn6Vi0xzlcAJh-1" target="RHz8wFNgn6Vi0xzlcAJh-9">
          <mxGeometry relative="1" as="geometry" />
        </mxCell>
        <mxCell id="RHz8wFNgn6Vi0xzlcAJh-1" value="&amp;nbsp;V1_System Operator" style="shape=umlActor;html=1;verticalLabelPosition=bottom;verticalAlign=top;align=center;rounded=0;" vertex="1" parent="1">
          <mxGeometry x="70" y="310" width="30" height="60" as="geometry" />
        </mxCell>
        <mxCell id="RHz8wFNgn6Vi0xzlcAJh-11" value="MQTT communication" style="shape=ellipse;html=1;strokeWidth=3;fontStyle=1;whiteSpace=wrap;align=center;perimeter=ellipsePerimeter;rounded=0;fillColor=#dae8fc;strokeColor=#6c8ebf;" vertex="1" parent="1">
          <mxGeometry x="440" y="190" width="120" height="60" as="geometry" />
        </mxCell>
        <mxCell id="RHz8wFNgn6Vi0xzlcAJh-12" value="Lane Following" style="shape=ellipse;html=1;strokeWidth=3;fontStyle=1;whiteSpace=wrap;align=center;perimeter=ellipsePerimeter;rounded=0;fillColor=#dae8fc;strokeColor=#6c8ebf;" vertex="1" parent="1">
          <mxGeometry x="190" y="310" width="120" height="60" as="geometry" />
        </mxCell>
        <mxCell id="824stADCSpXUjcyaGAVR-3" value="Hazard Alert" style="shape=ellipse;html=1;strokeWidth=3;fontStyle=1;whiteSpace=wrap;align=center;perimeter=ellipsePerimeter;fillColor=#dae8fc;strokeColor=#6c8ebf;" vertex="1" parent="1">
          <mxGeometry x="440" y="290" width="120" height="60" as="geometry" />
        </mxCell>
        <mxCell id="824stADCSpXUjcyaGAVR-5" value="LiDAR Mapping" style="shape=ellipse;html=1;strokeWidth=3;fontStyle=1;whiteSpace=wrap;align=center;perimeter=ellipsePerimeter;fillColor=#dae8fc;strokeColor=#6c8ebf;" vertex="1" parent="1">
          <mxGeometry x="440" y="390" width="120" height="60" as="geometry" />
        </mxCell>
        <mxCell id="824stADCSpXUjcyaGAVR-6" value="Collision Avoidance" style="shape=ellipse;html=1;strokeWidth=3;fontStyle=1;whiteSpace=wrap;align=center;perimeter=ellipsePerimeter;fillColor=#dae8fc;strokeColor=#6c8ebf;" vertex="1" parent="1">
          <mxGeometry x="440" y="490" width="120" height="60" as="geometry" />
        </mxCell>
        <mxCell id="824stADCSpXUjcyaGAVR-9" value="&amp;lt;&amp;lt;include&amp;gt;&amp;gt;" style="edgeStyle=none;html=1;endArrow=open;verticalAlign=bottom;dashed=1;labelBackgroundColor=none;rounded=0;exitX=1;exitY=0.5;exitDx=0;exitDy=0;entryX=0;entryY=0.5;entryDx=0;entryDy=0;" edge="1" parent="1" source="RHz8wFNgn6Vi0xzlcAJh-12" target="824stADCSpXUjcyaGAVR-3">
          <mxGeometry width="160" relative="1" as="geometry">
            <mxPoint x="300" y="360" as="sourcePoint" />
            <mxPoint x="460" y="360" as="targetPoint" />
          </mxGeometry>
        </mxCell>
        <mxCell id="824stADCSpXUjcyaGAVR-10" value="&amp;lt;&amp;lt;include&amp;gt;&amp;gt;" style="edgeStyle=none;html=1;endArrow=open;verticalAlign=bottom;dashed=1;labelBackgroundColor=none;rounded=0;exitX=1;exitY=0.5;exitDx=0;exitDy=0;entryX=0;entryY=0.5;entryDx=0;entryDy=0;" edge="1" parent="1" source="RHz8wFNgn6Vi0xzlcAJh-12" target="824stADCSpXUjcyaGAVR-5">
          <mxGeometry width="160" relative="1" as="geometry">
            <mxPoint x="300" y="360" as="sourcePoint" />
            <mxPoint x="460" y="360" as="targetPoint" />
          </mxGeometry>
        </mxCell>
        <mxCell id="824stADCSpXUjcyaGAVR-11" value="&amp;lt;&amp;lt;extend&amp;gt;&amp;gt;" style="edgeStyle=none;html=1;startArrow=open;endArrow=none;startSize=12;verticalAlign=bottom;dashed=1;labelBackgroundColor=none;rounded=0;exitX=1;exitY=0;exitDx=0;exitDy=0;entryX=0;entryY=0.5;entryDx=0;entryDy=0;" edge="1" parent="1" source="RHz8wFNgn6Vi0xzlcAJh-12" target="RHz8wFNgn6Vi0xzlcAJh-11">
          <mxGeometry width="160" relative="1" as="geometry">
            <mxPoint x="300" y="360" as="sourcePoint" />
            <mxPoint x="460" y="360" as="targetPoint" />
          </mxGeometry>
        </mxCell>
        <mxCell id="824stADCSpXUjcyaGAVR-12" value="&amp;lt;&amp;lt;extend&amp;gt;&amp;gt;" style="edgeStyle=none;html=1;startArrow=open;endArrow=none;startSize=12;verticalAlign=bottom;dashed=1;labelBackgroundColor=none;rounded=0;entryX=0.013;entryY=0.367;entryDx=0;entryDy=0;entryPerimeter=0;" edge="1" parent="1" target="824stADCSpXUjcyaGAVR-6">
          <mxGeometry width="160" relative="1" as="geometry">
            <mxPoint x="300" y="360" as="sourcePoint" />
            <mxPoint x="460" y="360" as="targetPoint" />
          </mxGeometry>
        </mxCell>
        <mxCell id="824stADCSpXUjcyaGAVR-13" value="Second Vehicle&amp;nbsp;" style="shape=umlActor;html=1;verticalLabelPosition=bottom;verticalAlign=top;align=center;" vertex="1" parent="1">
          <mxGeometry x="740" y="440" width="30" height="60" as="geometry" />
        </mxCell>
        <mxCell id="824stADCSpXUjcyaGAVR-15" value="IoT Server /Cloud" style="shape=umlActor;html=1;verticalLabelPosition=bottom;verticalAlign=top;align=center;" vertex="1" parent="1">
          <mxGeometry x="740" y="250" width="30" height="60" as="geometry" />
        </mxCell>
        <mxCell id="824stADCSpXUjcyaGAVR-16" value="&amp;lt;&amp;lt;extend&amp;gt;&amp;gt;" style="edgeStyle=none;html=1;startArrow=open;endArrow=none;startSize=12;verticalAlign=bottom;dashed=1;labelBackgroundColor=none;rounded=0;entryX=0.5;entryY=0.5;entryDx=0;entryDy=0;entryPerimeter=0;exitX=0.987;exitY=0.549;exitDx=0;exitDy=0;exitPerimeter=0;" edge="1" parent="1" source="RHz8wFNgn6Vi0xzlcAJh-9" target="824stADCSpXUjcyaGAVR-13">
          <mxGeometry width="160" relative="1" as="geometry">
            <mxPoint x="670" y="303" as="sourcePoint" />
            <mxPoint x="460" y="360" as="targetPoint" />
          </mxGeometry>
        </mxCell>
        <mxCell id="824stADCSpXUjcyaGAVR-17" value="&amp;lt;&amp;lt;extend&amp;gt;&amp;gt;" style="edgeStyle=none;html=1;startArrow=open;endArrow=none;startSize=12;verticalAlign=bottom;dashed=1;labelBackgroundColor=none;rounded=0;entryX=0.5;entryY=0.5;entryDx=0;entryDy=0;entryPerimeter=0;exitX=1.013;exitY=0.62;exitDx=0;exitDy=0;exitPerimeter=0;" edge="1" parent="1" source="RHz8wFNgn6Vi0xzlcAJh-11" target="824stADCSpXUjcyaGAVR-15">
          <mxGeometry x="-0.0011" y="-25" width="160" relative="1" as="geometry">
            <mxPoint x="300" y="360" as="sourcePoint" />
            <mxPoint x="460" y="360" as="targetPoint" />
            <mxPoint as="offset" />
          </mxGeometry>
        </mxCell>
      </root>
    </mxGraphModel>
  </diagram>
</mxfile>
